<?xml version="1.0" encoding="UTF-8"?>
<svg width="512" height="512" viewBox="0 0 512 512" fill="none" xmlns="http://www.w3.org/2000/svg">
  <rect width="512" height="512" rx="100" fill="#4F46E5"/>
  <path d="M128 256C128 229.49 149.49 208 176 208H336C362.51 208 384 229.49 384 256V336C384 362.51 362.51 384 336 384H176C149.49 384 128 362.51 128 336V256Z" fill="white"/>
  <path d="M128 176C128 149.49 149.49 128 176 128H256C282.51 128 304 149.49 304 176V176C304 202.51 282.51 224 256 224H176C149.49 224 128 202.51 128 176V176Z" fill="white" fill-opacity="0.7"/>
  <path d="M336 128H336C362.51 128 384 149.49 384 176V176C384 202.51 362.51 224 336 224H336C309.49 224 288 202.51 288 176V176C288 149.49 309.49 128 336 128Z" fill="white" fill-opacity="0.4"/>
</svg>
